<svg width="187" height="22" viewBox="0 0 187 22" fill="none" xmlns="http://www.w3.org/2000/svg">
    <path d="M127.443 14.46L127.444 14.459H127.442L127.443 14.46Z" fill="#EFEFEF" />
    <path d="M165.503 0.930908L165.878 0.481903L165.206 0.731903L165.503 0.930908Z" fill="#F4F4F4" />
    <path
        d="M170.949 6.76001C161.656 10.035 153.271 15.533 144.693 20.105C143.387 20.802 145.689 21.482 146.479 21.086C155.189 16.705 164.576 13.064 172.964 8.18798C174.592 7.24198 171.899 6.42601 170.949 6.76001Z"
        fill="#262324" />
    <path
        d="M183.551 6.809C174.813 11.062 165.801 15.343 157.675 20.55C156.989 20.989 158.13 21.295 158.541 21.164C168.308 18.06 177.177 12.803 186.219 8.27302C188.183 7.28902 184.745 6.228 183.551 6.809Z"
        fill="#262324" />
    <path
        d="M144.476 6.64396C143.564 6.50996 142.025 6.57294 141.535 7.47294C141.436 7.65394 141.426 7.81394 141.451 7.96394C140.928 8.55694 140.719 9.30496 141.266 10.126C142.363 11.771 145.693 11.556 147.065 10.362C148.907 8.76095 146 6.86896 144.476 6.64396Z"
        fill="#262324" />
    <path
        d="M77.614 6.76001C68.321 10.035 59.935 15.533 51.357 20.105C50.052 20.802 52.354 21.482 53.144 21.086C61.854 16.705 71.24 13.064 79.629 8.18798C81.257 7.24198 78.564 6.42601 77.614 6.76001Z"
        fill="#262324" />
    <path
        d="M90.216 6.809C81.478 11.062 72.465 15.343 64.339 20.55C63.653 20.989 64.795 21.295 65.205 21.164C74.973 18.06 83.841 12.803 92.883 8.27302C94.847 7.28902 91.41 6.228 90.216 6.809Z"
        fill="#262324" />
    <path
        d="M127.26 19.6279C119.399 15.1159 111.681 10.2609 103.183 6.82892C102.58 6.58592 100.878 7.04292 101.869 7.69492C109.114 12.4599 116.586 17.0939 124.359 21.0969C125.58 21.7259 129.318 20.8109 127.26 19.6279Z"
        fill="#262324" />
    <path
        d="M139.983 19.1919C131.529 15.8509 124.143 10.7649 116.055 6.78389C115.721 6.61989 114.175 6.7469 114.783 7.2769C121.516 13.1339 129.344 17.7089 137.834 21.0649C139.428 21.6959 142.511 20.1919 139.983 19.1919Z"
        fill="#262324" />
    <path
        d="M97.431 15.4619C96.52 15.3269 94.98 15.3909 94.49 16.2899C94.391 16.4729 94.382 16.6319 94.406 16.7809C93.884 17.3739 93.674 18.1229 94.221 18.9439C95.318 20.5899 98.648 20.3739 100.021 19.1809C101.863 17.5789 98.955 15.6869 97.431 15.4619Z"
        fill="#262324" />
    <path
        d="M51.14 6.64396C50.229 6.50996 48.689 6.57294 48.199 7.47294C48.1 7.65394 48.091 7.81394 48.115 7.96394C47.593 8.55694 47.383 9.30496 47.93 10.126C49.027 11.771 52.357 11.556 53.729 10.362C55.572 8.76095 52.664 6.86896 51.14 6.64396Z"
        fill="#262324" />
    <path
        d="M33.9241 19.6279C26.0631 15.1159 18.345 10.2609 9.84704 6.82892C9.24404 6.58592 7.54208 7.04292 8.53308 7.69492C15.7791 12.4599 23.2511 17.0939 31.0231 21.0969C32.2441 21.7259 35.9831 20.8109 33.9241 19.6279Z"
        fill="#262324" />
    <path
        d="M46.647 19.1919C38.193 15.8509 30.8071 10.7649 22.7191 6.78389C22.3851 6.61989 20.8391 6.7469 21.4481 7.2769C28.1811 13.1339 36.009 17.7089 44.498 21.0649C46.093 21.6959 49.176 20.1919 46.647 19.1919Z"
        fill="#262324" />
    <path
        d="M4.09504 15.4619C3.18504 15.3269 1.64606 15.3909 1.15406 16.2899C1.05606 16.4729 1.04607 16.6319 1.07007 16.7809C0.548073 17.3739 0.338052 18.1229 0.886052 18.9439C1.98205 20.5899 5.31304 20.3739 6.68604 19.1809C8.52704 17.5789 5.61904 15.6869 4.09504 15.4619Z"
        fill="#262324" />
</svg>