<svg width="168" height="17" viewBox="0 0 168 17" fill="none" xmlns="http://www.w3.org/2000/svg">
    <path
        d="M124.611 2.35813C124.684 2.31617 124.544 2.04208 124.403 1.93308C124.344 1.88708 124.024 1.99212 123.823 2.02812C123.822 2.51709 124.108 2.64613 124.611 2.35813Z"
        fill="#F7F7F7" />
    <path d="M120.227 2.9472L119.853 3.39423L120.524 3.1452L120.227 2.9472Z" fill="#F7F7F7" />
    <path
        d="M6.26491 6.90599C6.54391 7.06996 7.18691 7.05992 7.18691 6.79796C7.18691 6.78296 7.18691 6.76895 7.18691 6.75395C7.31391 6.68491 7.4039 6.59895 7.3929 6.48295C7.3469 5.98195 7.2679 5.48397 7.1839 4.98594C7.1779 4.49594 7.15291 4.00999 7.09691 3.52195C9.59491 5.07095 12.5219 6.21496 15.2849 7.52696C15.8019 7.85496 16.3229 8.17396 16.8599 8.46696C17.7159 8.93296 18.5789 9.38096 19.4429 9.82396C22.2989 11.621 25.0059 13.463 28.2249 14.845C28.6569 15.157 29.0829 15.4779 29.4939 15.8169C29.8789 16.1339 31.0309 16.1 31.5249 15.849C31.7009 15.844 31.8659 15.825 31.9819 15.777C40.0239 12.47 47.5219 7.65598 54.4839 3.10295C54.1249 4.24495 54.0939 5.44496 54.1049 6.61796C53.9749 7.13792 55.9819 7.2419 56.0759 6.64293C56.2539 5.50593 56.1739 4.34496 56.1209 3.19096C56.1869 2.79196 56.2569 2.40397 56.3129 2.03697C56.3199 1.99597 56.2959 1.96394 56.2789 1.92894C56.2989 1.91594 56.3189 1.90294 56.3379 1.88994C56.5299 1.76394 56.2559 1.69897 56.0229 1.68797C55.9339 1.57797 55.6979 1.53694 55.4779 1.56694C55.2079 1.28294 53.9529 1.14598 53.5079 1.40898C50.9389 2.92198 48.5209 4.65697 46.0919 6.40397C41.0899 9.26197 36.3179 12.4189 31.0379 14.9159C28.0439 12.583 24.5539 10.767 20.9619 8.99498C20.4769 8.68298 19.9959 8.36794 19.5059 8.05894C18.1919 7.23294 16.7469 6.54993 15.2779 5.89793C12.7509 4.26593 10.3809 2.55797 7.0399 1.71397C6.8849 1.67597 6.55391 1.66996 6.21691 1.69896C5.70091 1.63696 5.03791 1.75894 5.02191 2.06694C4.94491 3.53794 5.2769 4.98995 5.3369 6.45695C5.3489 6.73595 5.79291 6.87996 6.26491 6.90599Z"
        fill="#262324" />
    <path
        d="M13.8327 2.48592C15.3397 4.07692 17.7357 5.2069 19.8387 6.3279C23.2967 8.1729 26.7797 9.96793 29.7657 12.2329C30.0897 12.4789 30.9127 12.4999 31.4837 12.3709C31.6087 12.3559 31.7237 12.3319 31.8107 12.2889C37.5287 9.46394 43.3217 6.13595 47.6137 2.13887C47.7217 2.03891 47.5667 1.9889 47.4107 1.9789C47.4037 1.9189 47.2927 1.85995 47.1707 1.86092C36.2617 1.96689 25.7497 2.29592 14.8397 1.51692C14.3417 1.48192 13.8667 1.6239 13.5767 1.8119C13.4567 1.83686 13.3807 1.88389 13.3917 1.95589C13.2027 2.16689 13.2997 2.38492 13.8327 2.48592Z"
        fill="#262324" />
    <path
        d="M3.00266 9.28173C2.94366 8.36873 2.87566 7.45375 2.82766 6.53875C3.05866 6.11372 2.98066 5.60976 3.00066 5.14776C3.03866 4.22576 2.96966 3.29573 2.95066 2.37273C2.93966 1.85973 1.24765 1.83872 1.18665 2.34972C0.910653 4.65275 1.09766 6.95073 0.988655 9.25677C0.960655 9.84673 3.04066 9.85773 3.00266 9.28173Z"
        fill="#262324" />
    <path
        d="M117.29 6.43492C117.569 6.59889 118.212 6.58885 118.212 6.32689C118.212 6.31189 118.212 6.29788 118.212 6.28288C118.339 6.21384 118.428 6.12788 118.418 6.01188C118.372 5.51088 118.293 5.0129 118.209 4.51487C118.202 4.02487 118.177 3.53893 118.122 3.05089C120.619 4.59989 123.547 5.74389 126.31 7.05589C126.826 7.38389 127.347 7.70289 127.884 7.99589C128.741 8.46189 129.604 8.90989 130.467 9.35289C133.323 11.1499 136.031 12.9919 139.25 14.3739C139.682 14.6859 140.108 15.0069 140.519 15.3459C140.903 15.6629 142.055 15.6289 142.549 15.3779C142.725 15.3729 142.89 15.3539 143.007 15.3059C151.048 11.9989 158.547 7.18491 165.509 2.63188C165.15 3.77388 165.118 4.97389 165.13 6.14689C165 6.66685 167.006 6.77083 167.1 6.17186C167.278 5.03486 167.199 3.87389 167.146 2.71989C167.212 2.32089 167.282 1.9329 167.338 1.5659C167.344 1.5249 167.32 1.49287 167.304 1.45787C167.323 1.44487 167.343 1.43187 167.363 1.41887C167.555 1.29287 167.281 1.2279 167.048 1.2169C166.959 1.1069 166.722 1.06587 166.503 1.09587C166.233 0.811868 164.978 0.674909 164.532 0.937909C161.964 2.45091 159.546 4.1859 157.116 5.9329C152.115 8.79091 147.342 11.9479 142.063 14.4449C139.069 12.1119 135.578 10.2959 131.987 8.52391C131.502 8.21191 131.021 7.89687 130.53 7.58787C129.216 6.76187 127.772 6.07886 126.302 5.42686C123.776 3.79486 121.406 2.0869 118.065 1.2429C117.91 1.2049 117.578 1.19889 117.242 1.22789C116.726 1.16589 116.063 1.28787 116.047 1.59587C115.969 3.06687 116.301 4.51888 116.362 5.98588C116.374 6.26488 116.818 6.40889 117.29 6.43492Z"
        fill="#262324" />
    <path
        d="M124.857 2.01491C126.365 3.60591 128.76 4.73589 130.864 5.85689C134.322 7.70189 137.805 9.49692 140.79 11.7619C141.115 12.0079 141.938 12.0289 142.509 11.8999C142.633 11.8849 142.748 11.8609 142.836 11.8179C148.554 8.99293 154.347 5.66494 158.639 1.66786C158.746 1.5679 158.591 1.51789 158.435 1.50789C158.429 1.44789 158.317 1.38894 158.196 1.38991C147.287 1.49588 136.774 1.82491 125.865 1.04591C125.367 1.01091 124.892 1.1529 124.601 1.3409C124.482 1.36586 124.406 1.41288 124.416 1.48488C124.227 1.69588 124.325 1.91391 124.857 2.01491Z"
        fill="#262324" />
    <path
        d="M114.028 8.81066C113.969 7.89766 113.9 6.98268 113.852 6.06768C114.083 5.64265 114.005 5.13869 114.025 4.67669C114.063 3.75469 113.994 2.82466 113.975 1.90166C113.964 1.38866 112.273 1.36765 112.211 1.87865C111.936 4.18168 112.122 6.47966 112.013 8.7857C111.985 9.37566 114.065 9.38666 114.028 8.81066Z"
        fill="#262324" />
    <path
        d="M61.2329 6.51648C61.2319 6.52548 61.2319 6.53446 61.2309 6.54346C61.2339 6.54346 61.2369 6.54346 61.2399 6.54346C61.2509 6.58446 61.2559 6.62842 61.2679 6.66846C61.4289 7.20546 63.3739 7.16047 63.4209 6.57147C63.4349 6.57147 63.4499 6.57145 63.4639 6.57245C63.2469 5.65545 63.1549 4.70448 62.9949 3.76648C62.9909 3.61648 62.9989 3.48044 62.9979 3.33344C69.3229 7.65344 75.4499 12.4954 83.2199 15.3174C83.5239 15.6154 84.6759 15.8115 85.1979 15.6045C93.6259 12.2655 102.398 7.98545 108.537 2.45545C108.569 2.43345 108.601 2.41147 108.634 2.38947C108.648 2.46547 108.662 2.54144 108.667 2.60944C108.712 3.19544 108.744 3.78247 108.803 4.36847C108.852 4.85147 108.966 5.34547 109.157 5.80847C109.328 6.22247 109.543 6.20642 109.993 6.36945C110.025 6.38045 110.147 6.39348 110.144 6.34448C110.142 6.30545 110.36 6.24948 110.38 6.19348C110.437 6.04148 110.454 5.91047 110.453 5.75147C110.45 5.22347 110.478 4.69448 110.464 4.16748C110.447 3.48448 110.805 2.00544 110.167 1.47144C110.083 1.40148 109.966 1.35243 109.833 1.32147C109.586 0.991474 108.232 0.859482 107.79 1.16748C100.572 6.20248 92.5999 11.2445 83.8119 14.7324C76.6259 10.7064 70.3499 6.02344 63.5079 1.70044C62.8699 1.29844 60.5589 1.59145 61.2949 2.16345C61.0809 2.23545 60.9259 2.33346 60.9629 2.47449C61.0049 2.63343 61.0339 2.80747 61.0699 2.97547C60.7889 4.14147 60.9119 5.37748 61.2329 6.51648Z"
        fill="#262324" />
    <path
        d="M56.7907 9.76838C56.8707 10.4304 59.0977 10.4184 59.0237 9.79737C58.9207 8.93637 58.8387 8.07438 58.7707 7.21138C58.8577 5.54238 58.6747 3.85436 58.6547 2.19239C58.6477 1.54736 56.4667 1.51938 56.4337 2.16438C56.3037 4.70338 56.4887 7.23938 56.7907 9.76838Z"
        fill="#262324" />
    <path
        d="M68.0391 2.24738C73.9341 4.71638 78.0821 8.76137 83.5941 11.5944C83.6281 12.0114 85.0611 12.2724 85.6361 11.9724C91.1791 9.08836 96.9951 6.07941 100.702 1.80238C100.717 1.79938 100.732 1.79736 100.747 1.79536C101.431 1.66536 100.714 1.31637 100.317 1.34937C90.1191 2.20537 79.9731 1.59439 69.7611 1.37739C69.7391 1.37739 69.7241 1.38142 69.7031 1.38142C68.6891 1.20735 66.7871 1.72238 68.0391 2.24738Z"
        fill="#262324" />
</svg>