<svg width="197" height="16" viewBox="0 0 197 16" fill="none" xmlns="http://www.w3.org/2000/svg">
    <path
        d="M182.928 1.18746C183.511 0.305155 181.125 -0.168548 180.549 0.529252C176.635 5.26755 171.296 8.63525 167.083 13.0376C160.573 9.36175 155.513 3.59125 148.64 0.512651C148.417 0.412551 147.323 0.473528 147.699 0.856828C147.647 0.878828 147.599 0.903235 147.558 0.931535C141.635 5.07124 136.514 10.1865 131.448 15.229C131.078 15.5977 132.062 15.687 132.304 15.5166C138.182 11.3765 143.183 6.22898 149.057 2.08058C154.103 6.59031 159.45 11.2123 165.44 14.4511C165.572 14.5219 165.741 14.5648 165.927 14.5883C166.105 14.7153 166.513 14.7377 166.663 14.6386C166.7 14.6137 166.737 14.5878 166.774 14.5629C167.506 14.4467 168.167 14.1143 168.016 13.7227C173.017 10.3193 177.975 6.38614 182.101 2.07314C185.647 6.72164 189.91 11.0712 194.514 14.7343C194.905 15.0453 195.735 15.1284 196.485 15.0429C196.588 15.1025 196.732 15.1372 196.884 15.1602C196.977 14.6235 196.989 13.9887 196.991 13.1928C192.299 9.20503 187.713 5.07026 182.928 1.18746Z"
        fill="#262324" />
    <path
        d="M117.302 1.18746C117.886 0.305155 115.5 -0.168548 114.923 0.529252C111.009 5.26755 105.671 8.63525 101.458 13.0376C94.948 9.36175 89.888 3.59125 83.015 0.512651C82.792 0.412551 81.698 0.473528 82.073 0.856828C82.021 0.878828 81.974 0.903235 81.933 0.931535C76.01 5.07124 70.888 10.1865 65.8223 15.229C65.4521 15.5977 66.436 15.687 66.679 15.5166C72.557 11.3765 77.558 6.22898 83.432 2.08058C88.477 6.59031 93.825 11.2123 99.815 14.4511C99.946 14.5219 100.116 14.5648 100.301 14.5883C100.48 14.7153 100.888 14.7377 101.038 14.6386C101.075 14.6137 101.112 14.5878 101.149 14.5629C101.88 14.4467 102.542 14.1143 102.391 13.7227C107.392 10.3193 112.349 6.38614 116.476 2.07314C120.021 6.72164 124.284 11.0712 128.889 14.7343C129.28 15.0453 130.11 15.1284 130.86 15.0429C130.962 15.1025 131.107 15.1372 131.259 15.1602C131.351 14.6235 131.364 13.9887 131.365 13.1928C126.674 9.20503 122.088 5.07026 117.302 1.18746Z"
        fill="#262324" />
    <path
        d="M51.6773 1.18746C52.2604 0.305155 49.8746 -0.168548 49.2984 0.529252C45.3844 5.26755 40.0459 8.63525 35.8326 13.0376C29.3229 9.36175 24.2623 3.59125 17.3897 0.512651C17.1661 0.412551 16.0729 0.473528 16.4483 0.856828C16.3966 0.878828 16.3486 0.903235 16.3076 0.931535C10.3843 5.07124 5.26325 10.1865 0.197352 15.229C-0.173248 15.5977 0.811052 15.687 1.05325 15.5166C6.93165 11.3765 11.9322 6.22898 17.8067 2.08058C22.8517 6.59031 28.1998 11.2123 34.1896 14.4511C34.3214 14.5219 34.4902 14.5648 34.6758 14.5883C34.8545 14.7153 35.2628 14.7377 35.4127 14.6386C35.4498 14.6137 35.4869 14.5878 35.524 14.5629C36.2555 14.4467 36.9161 14.1143 36.7657 13.7227C41.7662 10.3193 46.7237 6.38614 50.8507 2.07314C54.3966 6.72164 58.6593 11.0712 63.2633 14.7343C63.6544 15.0453 64.4845 15.1284 65.235 15.0429C65.3375 15.1025 65.482 15.1372 65.6339 15.1602C65.7257 14.6235 65.7388 13.9887 65.7402 13.1928C61.0483 9.20503 56.463 5.07026 51.6773 1.18746Z"
        fill="#262324" />
</svg>