<svg width="204" height="19" viewBox="0 0 204 19" fill="none" xmlns="http://www.w3.org/2000/svg">
    <path
        d="M16.3788 16.8307C16.4018 16.7947 16.4248 16.7607 16.4478 16.7257C16.3888 16.7297 16.3288 16.7297 16.2698 16.7317C16.3078 16.7637 16.3438 16.7967 16.3788 16.8307Z"
        fill="#F6F6F6" />
    <path d="M18.2948 18.8696C18.2958 18.6936 18.2388 18.7476 18.2948 18.8696Z" fill="#F9F9F9" />
    <path d="M169.817 11.3496L170.191 10.9026L169.52 11.1526L169.817 11.3496Z" fill="#F9F9F9" />
    <path d="M188.738 12.9827L189.409 13.2317L189.035 12.7847L188.738 12.9827Z" fill="#F9F9F9" />
    <path
        d="M83.2778 12.8277C81.5128 10.1776 79.8018 7.50464 78.3778 4.69862C77.1268 6.15461 75.8698 7.60761 74.6318 9.07362C73.6558 10.2286 72.5038 12.3156 70.8468 12.7196C74.9928 12.7407 79.1348 12.7216 83.2778 12.8277ZM87.1168 13.3977C87.7418 14.3236 86.2788 14.6226 85.5038 14.5897C80.1108 14.3576 74.6798 14.9077 69.2758 14.9436C66.5058 14.9616 65.7718 12.6746 68.9558 12.7177C69.4778 12.7246 69.9988 12.7157 70.5208 12.7196C70.4958 12.7086 70.4618 12.7216 70.4438 12.7036L70.1808 12.4367C70.0818 12.3357 70.0778 12.2316 70.1368 12.1116C71.9738 8.40767 74.3008 4.73762 77.1848 1.58064C77.8718 0.828622 80.1038 0.779617 80.5048 1.81264C82.1078 5.95967 84.5998 9.66665 87.1168 13.3977Z"
        fill="#262324" />
    <path
        d="M104.684 13.1226C103.193 10.9056 101.866 8.58463 100.608 6.23161C99.4748 8.56162 98.0608 10.7996 96.6298 12.9326C99.3188 12.8806 102.003 12.9456 104.684 13.1226ZM109.033 14.3626C109.756 15.5336 106.487 15.6916 105.82 14.7926C105.719 14.6556 105.632 14.5076 105.533 14.3706C101.799 14.6646 98.0508 14.7886 94.3148 15.0676C93.7368 15.1116 91.2508 14.8726 91.9488 13.7166C94.3408 9.75858 96.6118 5.92259 98.5108 1.71861C99.0158 0.601597 101.661 0.753579 102.175 1.78062C104.323 6.06559 106.505 10.2706 109.033 14.3626Z"
        fill="#262324" />
    <path
        d="M129.49 12.2156C127.738 10.0856 126.738 7.57262 125.652 5.0606C123.383 7.54064 121.093 10.0026 118.765 12.4306C122.338 12.2056 125.912 12.2536 129.49 12.2156ZM133.889 12.6706C134.912 13.5676 132.907 14.0976 132.326 14.1146C127.576 14.2546 122.821 14.1636 118.099 14.7616C117.479 14.8406 116.907 14.6866 116.457 14.4406C115.791 14.5036 114.896 14.2846 115.225 13.7946C115.375 13.5716 115.55 13.3676 115.702 13.1456C115.735 13.0826 115.775 13.0247 115.833 12.9676C118.519 9.07262 121.477 5.39562 124.713 1.89763C125.359 1.1986 127.386 1.26464 127.827 2.1726C129.606 5.84362 130.681 9.85662 133.889 12.6706Z"
        fill="#262324" />
    <path
        d="M154.664 12.2437C152.966 9.92965 152.083 7.20063 150.695 4.71064C148.232 7.34962 145.854 10.1636 143.176 12.5357C147.003 12.3836 150.838 12.4136 154.664 12.2437ZM159.146 12.6397C160.16 13.6477 158.162 14.1527 157.475 14.1796C152.402 14.3817 147.328 14.5986 142.251 14.7357C140.445 14.7846 140.048 13.6336 140.921 12.9866C141.897 8.81563 146.544 4.62465 149.401 1.64766C150.059 0.961626 151.999 0.947648 152.619 1.70265C155.375 5.05562 156.033 9.54365 159.146 12.6397Z"
        fill="#262324" />
    <path
        d="M179.102 12.4106C177.227 9.86864 175.671 6.98258 173.788 4.41459C171.876 6.74864 170.264 9.5706 169.211 12.6126C172.507 12.7126 175.803 12.4906 179.102 12.4106ZM180.055 14.7136C175.768 14.7326 171.482 15.1486 167.198 14.7676C166.608 14.7146 165.394 14.3916 165.704 13.3196C167.043 8.69462 169.748 4.99559 172.504 1.59764C173.049 0.924608 174.357 0.854591 174.966 1.42564C177.603 3.8986 180.6 8.1876 180.894 12.5606C181.992 13.0896 181.706 14.7056 180.055 14.7136Z"
        fill="#262324" />
    <path
        d="M199.966 12.5967C198.306 10.0397 197.458 6.89069 196.052 4.13672C193.678 7.17267 191.143 10.0247 188.78 13.0847C192.486 13.1017 196.279 13.1857 199.966 12.5967ZM201.843 14.1557C197.312 14.3317 192.78 14.6327 188.249 14.8307C187.702 14.8547 187.429 14.6027 187.288 14.3027C186.766 14.2887 186.215 14.0337 186.462 13.5737C188.823 9.15466 191.798 4.91969 195.133 1.61573C195.755 0.998727 196.94 1.00366 197.412 1.87671C199.353 5.46667 200.538 9.66071 202.972 12.8017C203.655 13.6837 202.31 14.1377 201.843 14.1557Z"
        fill="#262324" />
    <path
        d="M14.2789 12.2437C12.5809 9.92965 11.6979 7.20063 10.3099 4.71064C7.84689 7.34962 5.46889 10.1636 2.79089 12.5357C6.61789 12.3836 10.4529 12.4136 14.2789 12.2437ZM18.7609 12.6397C19.7749 13.6477 17.7779 14.1527 17.0909 14.1796C12.0169 14.3817 6.94289 14.5986 1.86589 14.7357C0.0598904 14.7846 -0.337104 13.6336 0.535896 12.9866C1.5119 8.81563 6.15889 4.62465 9.01589 1.64766C9.67389 0.961626 11.6139 0.947648 12.2339 1.70265C14.9899 5.05562 15.6479 9.54365 18.7609 12.6397Z"
        fill="#262324" />
    <path
        d="M38.7168 12.4106C36.8418 9.86864 35.2858 6.98258 33.4028 4.41459C31.4908 6.74864 29.8788 9.5706 28.8258 12.6126C32.1228 12.7126 35.4188 12.4906 38.7168 12.4106ZM39.6708 14.7136C35.3828 14.7326 31.0968 15.1486 26.8138 14.7676C26.2228 14.7146 25.0088 14.3916 25.3198 13.3196C26.6578 8.69462 29.3628 4.99559 32.1188 1.59764C32.6638 0.924608 33.9718 0.854591 34.5808 1.42564C37.2178 3.8986 40.2158 8.1876 40.5088 12.5606C41.6068 13.0896 41.3208 14.7056 39.6708 14.7136Z"
        fill="#262324" />
    <path
        d="M59.5818 12.5967C57.9218 10.0397 57.0728 6.89069 55.6668 4.13672C53.2938 7.17267 50.7578 10.0247 48.3958 13.0847C52.1018 13.1017 55.8938 13.1857 59.5818 12.5967ZM61.4578 14.1557C56.9268 14.3317 52.3958 14.6327 47.8638 14.8307C47.3178 14.8547 47.0448 14.6027 46.9028 14.3027C46.3808 14.2887 45.8298 14.0337 46.0768 13.5737C48.4388 9.15466 51.4128 4.91969 54.7478 1.61573C55.3698 0.998727 56.5548 1.00366 57.0268 1.87671C58.9678 5.46667 60.1528 9.66071 62.5878 12.8017C63.2698 13.6837 61.9248 14.1377 61.4578 14.1557Z"
        fill="#262324" />
</svg>