<svg width="168" height="16" viewBox="0 0 168 16" fill="none" xmlns="http://www.w3.org/2000/svg">
    <path
        d="M161.853 9.41793C161.574 9.25396 160.931 9.264 160.931 9.52596C160.931 9.54096 160.931 9.55496 160.931 9.56996C160.804 9.639 160.714 9.72496 160.725 9.84096C160.771 10.342 160.85 10.8399 160.934 11.338C160.94 11.828 160.965 12.3139 161.021 12.802C158.523 11.253 155.596 10.109 152.833 8.79695C152.316 8.46895 151.795 8.14995 151.258 7.85695C150.402 7.39095 149.539 6.94296 148.675 6.49996C145.819 4.70296 143.112 2.86092 139.893 1.47896C139.461 1.16696 139.035 0.845974 138.624 0.506974C138.239 0.189974 137.087 0.223931 136.593 0.474931C136.417 0.479931 136.252 0.498952 136.136 0.546952C128.094 3.85395 120.596 8.66793 113.634 13.221C113.993 12.079 114.024 10.879 114.013 9.70595C114.143 9.18599 112.136 9.08202 112.042 9.68099C111.864 10.818 111.944 11.979 111.997 13.133C111.931 13.532 111.861 13.9199 111.805 14.2869C111.798 14.3279 111.822 14.36 111.839 14.395C111.819 14.408 111.799 14.421 111.78 14.434C111.588 14.56 111.862 14.6249 112.095 14.6359C112.184 14.7459 112.42 14.787 112.64 14.757C112.91 15.041 114.165 15.1779 114.61 14.9149C117.179 13.4019 119.597 11.6669 122.026 9.91994C127.028 7.06194 131.8 3.90498 137.08 1.40798C140.074 3.74095 143.564 5.55694 147.156 7.32894C147.641 7.64094 148.122 7.95597 148.612 8.26497C149.926 9.09097 151.371 9.77398 152.84 10.426C155.367 12.058 157.737 13.7659 161.078 14.6099C161.233 14.6479 161.564 14.654 161.901 14.625C162.417 14.687 163.08 14.565 163.096 14.257C163.173 12.786 162.841 11.334 162.781 9.86696C162.769 9.58796 162.325 9.44396 161.853 9.41793Z"
        fill="#262324" />
    <path
        d="M154.278 13.8389C152.771 12.2479 150.375 11.1179 148.272 9.99693C144.814 8.15193 141.331 6.3569 138.345 4.0919C138.021 3.8459 137.198 3.8249 136.627 3.9539C136.502 3.9689 136.387 3.99293 136.3 4.03593C130.582 6.86089 124.789 10.1889 120.497 14.186C120.389 14.2859 120.544 14.3359 120.7 14.3459C120.707 14.4059 120.818 14.4649 120.94 14.4639C131.849 14.3579 142.361 14.0289 153.271 14.8079C153.769 14.8429 154.244 14.7009 154.534 14.5129C154.654 14.488 154.73 14.4409 154.719 14.3689C154.908 14.1579 154.811 13.9399 154.278 13.8389Z"
        fill="#262324" />
    <path
        d="M165.103 7.16395C165.162 8.07695 165.23 8.99193 165.278 9.90693C165.047 10.332 165.125 10.8359 165.105 11.2979C165.067 12.2199 165.136 13.1499 165.155 14.0729C165.166 14.5859 166.858 14.607 166.919 14.096C167.195 11.7929 167.008 9.49495 167.117 7.18891C167.145 6.59895 165.065 6.58795 165.103 7.16395Z"
        fill="#262324" />
    <path
        d="M50.8271 9.41793C50.5483 9.25396 49.9048 9.264 49.9053 9.52596C49.9053 9.54096 49.9053 9.55496 49.9053 9.56996C49.7783 9.639 49.6885 9.72496 49.6992 9.84096C49.7446 10.342 49.8242 10.8399 49.9082 11.338C49.9146 11.828 49.9395 12.3139 49.9951 12.802C47.4976 11.253 44.5703 10.109 41.8071 8.79695C41.2905 8.46895 40.7695 8.14995 40.2324 7.85695C39.376 7.39095 38.5127 6.94296 37.6494 6.49996C34.7935 4.70296 32.0859 2.86092 28.8672 1.47896C28.4351 1.16696 28.0093 0.845974 27.5981 0.506974C27.2134 0.189974 26.0615 0.223931 25.5674 0.474931C25.3916 0.479931 25.2266 0.498952 25.1099 0.546952C17.0684 3.85395 9.56981 8.66793 2.60791 13.221C2.96681 12.079 2.99851 10.879 2.98681 9.70595C3.11671 9.18599 1.11041 9.08202 1.01661 9.68099C0.838409 10.818 0.918006 11.979 0.971206 13.133C0.904806 13.532 0.835008 13.9199 0.778808 14.2869C0.772508 14.3279 0.796407 14.36 0.813007 14.395C0.793507 14.408 0.773406 14.421 0.753906 14.434C0.562006 14.56 0.835909 14.6249 1.06881 14.6359C1.15821 14.7459 1.39451 14.787 1.61381 14.757C1.88431 15.041 3.13921 15.1779 3.58451 14.9149C6.15281 13.4019 8.57131 11.6669 11.0005 9.91994C16.002 7.06194 20.7744 3.90498 26.0537 1.40798C29.0479 3.74095 32.5386 5.55694 36.1299 7.32894C36.6152 7.64094 37.0957 7.95597 37.5864 8.26497C38.9004 9.09097 40.3452 9.77398 41.8145 10.426C44.3408 12.058 46.7109 13.7659 50.0518 14.6099C50.207 14.6479 50.5386 14.654 50.875 14.625C51.3906 14.687 52.0542 14.565 52.0703 14.257C52.1475 12.786 51.8154 11.334 51.7549 9.86696C51.7432 9.58796 51.2988 9.44396 50.8271 9.41793Z"
        fill="#262324" />
    <path
        d="M43.2524 13.8389C41.7446 12.2479 39.3496 11.1179 37.2461 9.99693C33.7881 8.15193 30.3052 6.3569 27.3193 4.0919C26.9951 3.8459 26.1719 3.8249 25.6011 3.9539C25.4766 3.9689 25.3613 3.99293 25.2739 4.03593C19.5557 6.86089 13.7627 10.1889 9.47118 14.186C9.36328 14.2859 9.51859 14.3359 9.67429 14.3459C9.68069 14.4059 9.79248 14.4649 9.91408 14.4639C20.8228 14.3579 31.3354 14.0289 42.2451 14.8079C42.7432 14.8429 43.2178 14.7009 43.5083 14.5129C43.6279 14.488 43.7041 14.4409 43.6934 14.3689C43.8823 14.1579 43.7847 13.9399 43.2524 13.8389Z"
        fill="#262324" />
    <path
        d="M54.0768 7.16395C54.1358 8.07695 54.2042 8.99193 54.2525 9.90693C54.0216 10.332 54.0992 10.8359 54.0797 11.2979C54.0416 12.2199 54.1105 13.1499 54.1295 14.0729C54.1402 14.5859 55.8321 14.607 55.8932 14.096C56.169 11.7929 55.9825 9.49495 56.0914 7.18891C56.1192 6.59895 54.0392 6.58795 54.0768 7.16395Z"
        fill="#262324" />
    <path
        d="M106.884 9.57391C106.885 9.56491 106.885 9.55593 106.886 9.54693C106.883 9.54693 106.88 9.54693 106.877 9.54693C106.866 9.50593 106.861 9.46197 106.849 9.42193C106.688 8.88493 104.743 8.92992 104.696 9.51892C104.682 9.51892 104.667 9.51894 104.653 9.51794C104.87 10.4349 104.962 11.3859 105.122 12.3239C105.126 12.4739 105.118 12.61 105.119 12.757C98.7941 8.43696 92.6671 3.59495 84.8971 0.772946C84.5931 0.474946 83.4411 0.278937 82.9191 0.485897C74.4911 3.82494 65.7193 8.10495 59.5802 13.6349C59.548 13.6569 59.5157 13.6789 59.4835 13.7009C59.4693 13.6249 59.4552 13.549 59.4498 13.481C59.4049 12.895 59.3731 12.3079 59.3141 11.7219C59.2647 11.2389 59.1515 10.7449 58.9601 10.2819C58.7887 9.86792 58.5738 9.88398 58.1241 9.72095C58.0924 9.70995 57.9698 9.69691 57.9728 9.74591C57.9752 9.78494 57.7574 9.84091 57.7369 9.89691C57.6798 10.0489 57.6627 10.1799 57.6637 10.3389C57.6666 10.8669 57.6393 11.3959 57.6529 11.9229C57.67 12.6059 57.3121 14.085 57.9503 14.619C58.0338 14.6889 58.1515 14.738 58.2843 14.7689C58.5309 15.0989 59.8849 15.2309 60.3268 14.9229C67.545 9.88791 75.5171 4.84594 84.3051 1.35797C91.4911 5.38397 97.7671 10.067 104.609 14.39C105.247 14.792 107.558 14.4989 106.822 13.9269C107.036 13.8549 107.191 13.7569 107.154 13.6159C107.112 13.457 107.083 13.2829 107.047 13.1149C107.328 11.9489 107.205 10.7129 106.884 9.57391Z"
        fill="#262324" />
    <path
        d="M111.316 6.44091C111.236 5.77891 109.009 5.79092 109.083 6.41192C109.186 7.27292 109.268 8.13491 109.336 8.99791C109.249 10.6669 109.432 12.3549 109.452 14.0169C109.459 14.6619 111.64 14.6899 111.673 14.0449C111.803 11.5059 111.618 8.96991 111.316 6.44091Z"
        fill="#262324" />
    <path
        d="M100.071 13.8489C94.176 11.3799 90.028 7.33494 84.516 4.50194C84.482 4.08494 83.049 3.82395 82.474 4.12395C76.931 7.00795 71.115 10.0169 67.4082 14.2939C67.3931 14.2969 67.3779 14.299 67.3628 14.301C66.6792 14.431 67.3965 14.7799 67.793 14.7469C77.991 13.8909 88.137 14.5019 98.349 14.7189C98.371 14.7189 98.386 14.7149 98.407 14.7149C99.421 14.889 101.323 14.3739 100.071 13.8489Z"
        fill="#262324" />
</svg>