<svg width="204" height="18" viewBox="0 0 204 18" fill="none" xmlns="http://www.w3.org/2000/svg">
    <path
        d="M16.2475 15.7821C16.2245 15.8181 16.2015 15.8521 16.1785 15.8871C16.2375 15.8831 16.2975 15.8831 16.3565 15.8811C16.3185 15.8491 16.2825 15.8161 16.2475 15.7821Z"
        fill="#F6F6F6" />
    <path d="M18.1789 17.8134C18.1779 17.9894 18.2349 17.9354 18.1789 17.8134Z" fill="#F9F9F9" />
    <path d="M169.802 9.95905L169.428 10.406L170.099 10.156L169.802 9.95905Z" fill="#F9F9F9" />
    <path d="M189.318 12.0901L188.647 11.8411L189.021 12.2881L189.318 12.0901Z" fill="#F9F9F9" />
    <path
        d="M70.7648 2.19798C72.5298 4.848 74.2408 7.52099 75.6648 10.327C76.9158 8.87102 78.1728 7.41802 79.4108 5.95201C80.3868 4.79699 81.5388 2.71 83.1958 2.30601C79.0498 2.28495 74.9078 2.30399 70.7648 2.19798ZM66.9258 1.62797C66.3008 0.702005 67.7638 0.402998 68.5388 0.435958C73.9318 0.668018 79.3628 0.117965 84.7668 0.082015C87.5368 0.064005 88.2708 2.351 85.0868 2.30797C84.5648 2.30101 84.0438 2.30998 83.5218 2.30601C83.5468 2.31699 83.5808 2.304 83.5988 2.32201L83.8618 2.58897C83.9608 2.68998 83.9648 2.79399 83.9058 2.91399C82.0688 6.61797 79.7418 10.288 76.8578 13.445C76.1708 14.197 73.9388 14.246 73.5378 13.213C71.9348 9.06597 69.4428 5.35899 66.9258 1.62797Z"
        fill="#262324" />
    <path
        d="M96.1877 2.24691C97.6787 4.46389 99.0057 6.78488 100.264 9.1379C101.397 6.80789 102.811 4.56991 104.242 2.43691C101.553 2.48892 98.8687 2.42391 96.1877 2.24691ZM91.8387 1.00692C91.1157 -0.164104 94.3847 -0.322127 95.0517 0.576923C95.1527 0.713883 95.2397 0.86189 95.3387 0.99892C99.0727 0.70491 102.821 0.580899 106.557 0.301899C107.135 0.257899 109.621 0.496902 108.923 1.65291C106.531 5.61092 104.26 9.44692 102.361 13.6509C101.856 14.7679 99.2107 14.6159 98.6967 13.5889C96.5487 9.30392 94.3667 5.0989 91.8387 1.00692Z"
        fill="#262324" />
    <path
        d="M119.748 3.0489C121.5 5.1789 122.5 7.69191 123.586 10.2039C125.855 7.72389 128.145 5.2619 130.473 2.83393C126.9 3.0589 123.326 3.01093 119.748 3.0489ZM115.349 2.59388C114.326 1.6969 116.331 1.16689 116.912 1.14991C121.662 1.00991 126.417 1.10091 131.139 0.502878C131.759 0.423908 132.331 0.577893 132.781 0.823923C133.447 0.760933 134.342 0.979929 134.013 1.46992C133.863 1.69289 133.688 1.89693 133.536 2.11891C133.503 2.1819 133.463 2.23987 133.405 2.29688C130.719 6.1919 127.761 9.8689 124.525 13.3669C123.879 14.0659 121.852 13.9999 121.411 13.0919C119.632 9.42091 118.557 5.4079 115.349 2.59388Z"
        fill="#262324" />
    <path
        d="M145.149 2.68456C146.847 4.99858 147.73 7.72759 149.118 10.2176C151.581 7.5786 153.959 4.76458 156.637 2.39256C152.81 2.5446 148.975 2.51458 145.149 2.68456ZM140.667 2.28856C139.653 1.28057 141.651 0.775563 142.338 0.748583C147.411 0.546563 152.485 0.329582 157.562 0.192552C159.368 0.143602 159.765 1.29461 158.892 1.94158C157.916 6.1126 153.269 10.3036 150.412 13.2806C149.754 13.9666 147.814 13.9806 147.194 13.2256C144.438 9.8726 143.78 5.38457 140.667 2.28856Z"
        fill="#262324" />
    <path
        d="M168.009 2.61421C169.884 5.1562 171.44 8.04226 173.323 10.6102C175.235 8.2762 176.847 5.45424 177.9 2.41225C174.604 2.31221 171.308 2.53419 168.009 2.61421ZM167.056 0.311236C171.343 0.292256 175.629 -0.12376 179.913 0.25722C180.503 0.3102 181.717 0.633258 181.407 1.70522C180.068 6.33022 177.363 10.0293 174.607 13.4272C174.062 14.1002 172.754 14.1703 172.145 13.5992C169.508 11.1262 166.511 6.83724 166.217 2.46425C165.119 1.9352 165.405 0.319226 167.056 0.311236Z"
        fill="#262324" />
    <path
        d="M189.505 2.47497C191.165 5.03198 192.013 8.18096 193.419 10.9349C195.793 7.89898 198.328 5.04692 200.691 1.98693C196.985 1.96996 193.192 1.88598 189.505 2.47497ZM187.628 0.91595C192.159 0.73999 196.691 0.438962 201.222 0.240962C201.769 0.216982 202.042 0.468927 202.183 0.768977C202.705 0.782957 203.256 1.03796 203.009 1.49798C200.648 5.91699 197.673 10.152 194.338 13.4559C193.716 14.0729 192.531 14.068 192.059 13.1949C190.118 9.60498 188.933 5.41094 186.499 2.26995C185.816 1.38793 187.161 0.93396 187.628 0.91595Z"
        fill="#262324" />
    <path
        d="M4.76377 2.68456C6.46177 4.99858 7.34477 7.72759 8.73277 10.2176C11.1958 7.5786 13.5738 4.76458 16.2518 2.39256C12.4248 2.5446 8.58977 2.51458 4.76377 2.68456ZM0.281767 2.28856C-0.732234 1.28057 1.26476 0.775563 1.95176 0.748583C7.02577 0.546563 12.0998 0.329582 17.1768 0.192552C18.9828 0.143602 19.3798 1.29461 18.5068 1.94158C17.5308 6.1126 12.8838 10.3036 10.0268 13.2806C9.36877 13.9666 7.42877 13.9806 6.80877 13.2256C4.05277 9.8726 3.39477 5.38457 0.281767 2.28856Z"
        fill="#262324" />
    <path
        d="M27.6249 2.61421C29.4999 5.1562 31.0559 8.04226 32.9389 10.6102C34.8509 8.2762 36.4629 5.45424 37.5159 2.41225C34.2189 2.31221 30.9229 2.53419 27.6249 2.61421ZM26.6709 0.311236C30.9589 0.292256 35.2449 -0.12376 39.5279 0.25722C40.1189 0.3102 41.3329 0.633258 41.0219 1.70522C39.6839 6.33022 36.9789 10.0293 34.2229 13.4272C33.6779 14.1002 32.3699 14.1703 31.7609 13.5992C29.1239 11.1262 26.1259 6.83724 25.8329 2.46425C24.7349 1.9352 25.0209 0.319226 26.6709 0.311236Z"
        fill="#262324" />
    <path
        d="M49.12 2.47497C50.78 5.03198 51.629 8.18096 53.035 10.9349C55.408 7.89898 57.944 5.04692 60.306 1.98693C56.6 1.96996 52.808 1.88598 49.12 2.47497ZM47.244 0.91595C51.775 0.73999 56.306 0.438962 60.838 0.240962C61.384 0.216982 61.657 0.468927 61.799 0.768977C62.321 0.782957 62.872 1.03796 62.625 1.49798C60.263 5.91699 57.289 10.152 53.954 13.4559C53.332 14.0729 52.147 14.068 51.675 13.1949C49.734 9.60498 48.549 5.41094 46.114 2.26995C45.432 1.38793 46.777 0.93396 47.244 0.91595Z"
        fill="#262324" />
</svg>