<svg width="183" height="28" viewBox="0 0 183 28" fill="none" xmlns="http://www.w3.org/2000/svg">
    <path
        d="M13.255 21.5419C13.2921 21.566 13.3248 21.592 13.36 21.6169C13.4088 21.6 13.4596 21.5809 13.5075 21.566C13.4762 21.564 13.4254 21.554 13.3493 21.535C13.3195 21.535 13.2897 21.538 13.255 21.5419Z"
        fill="#F6F6F6" />
    <path
        d="M13.3493 21.5349C13.3034 21.5239 13.237 21.5029 13.172 21.4839C13.2028 21.5009 13.2257 21.5239 13.255 21.5419C13.2897 21.5379 13.3195 21.5349 13.3493 21.5349Z"
        fill="#F9F9F9" />
    <path
        d="M75.0518 12.7629C72.4158 12.3049 69.6748 12.3069 66.9142 12.4519C63.4498 12.3259 59.9586 12.4189 56.6915 12.9229C56.1662 12.8919 55.65 12.9299 55.2008 13.0369C53.2306 13.2549 52.8707 14.4089 54.2394 14.8699C54.547 18.2649 54.9865 21.6409 55.4381 25.0209C55.2184 25.0109 54.9977 24.9929 54.7789 24.9879C50.4596 24.1569 45.3024 24.4229 40.8248 24.8999C42.338 17.3719 41.5319 10.0069 39.195 2.58089C41.1613 2.08394 40.7843 0.376907 37.9332 0.384907C37.423 0.385877 36.9181 0.416897 36.4098 0.427937C31.4269 0.055917 25.8082 -0.271097 20.9811 0.642903C19.8385 0.575873 18.5797 0.849933 18.5128 1.52791C18.1867 4.85689 18.4747 9.68294 18.2145 13.0099C17.6637 13.0029 17.112 13.0259 16.5602 13.0299C11.8424 12.9259 7.0206 13.4179 2.3043 13.1689C-0.0134993 13.0459 -1.1337 14.9219 1.6105 15.1679C6.0651 15.5689 11.8839 15.8979 16.6828 14.9629C18.0895 14.9419 19.4957 14.9079 20.8986 14.8419C21.5026 14.8139 22.507 14.5179 22.5236 13.9769C22.6222 10.6919 22.4513 5.91189 22.7384 2.63192C27.4108 3.0939 32.0885 2.69093 36.8248 2.71993C35.8825 10.7799 37.7941 18.9429 36.0949 26.9519C35.8703 28.0119 39.2321 28.2049 40.1447 27.3289C45.5075 27.1989 50.8576 27.0149 56.2267 27.1599C56.5944 27.2519 57.0592 27.2389 57.4162 27.1219C59.0153 26.9069 59.7662 25.7649 58.3312 25.3049C59.2042 21.8929 59.1246 18.5429 58.8668 15.0619C61.1852 15.0739 63.5822 15.0999 65.9718 15.0529C68.9158 15.2399 71.8568 15.2899 74.6748 15.0639C75.3508 15.0089 75.8088 14.8189 76.0908 14.5809C77.2368 14.0989 76.7568 13.0599 75.0518 12.7629Z"
        fill="#262324" />
    <path
        d="M83.7608 7.51592C83.6838 6.36094 79.8518 6.16095 79.4738 7.21697C78.8988 8.82495 79.2818 10.5749 79.5178 12.207C79.5398 12.3589 79.5598 12.519 79.5798 12.673C79.3268 14.5439 79.4758 16.4319 80.2098 18.2629C80.6588 19.3829 85.2198 19.3359 84.9918 18.0519C84.4738 15.1299 84.6038 12.0649 83.8038 9.15996C83.7958 8.61192 83.7968 8.06291 83.7608 7.51592Z"
        fill="#262324" />
    <path
        d="M91.3458 7.27689C91.3168 7.2429 91.2648 7.21786 91.2298 7.18686C91.1788 7.09085 91.0818 7.01585 90.9478 6.96689C89.8418 6.34989 87.5228 6.40287 87.1678 7.45987C86.6518 8.99985 87.4618 11.1839 87.5278 12.7939C87.5548 13.4669 87.5268 14.1349 87.5038 14.8029C87.3268 15.9669 87.2428 17.1439 87.3318 18.3529C87.4388 19.7939 92.3098 19.8139 92.2368 18.4149C92.2478 17.7729 92.2388 17.1349 92.2318 16.4948C92.2678 15.2829 92.3488 14.0669 92.3138 12.8559C92.2658 11.2138 92.5668 8.71085 91.3458 7.27689Z"
        fill="#262324" />
    <path
        d="M165.269 12.1139C159.777 12.1099 154.348 11.8529 148.886 12.1609C148.573 12.1419 148.262 12.1359 147.948 12.1139C146.076 11.9779 144.224 12.9409 145.022 13.6429C146.084 17.1009 146 20.4989 146.114 23.9909C145.8 24.0209 145.485 24.0619 145.172 24.0879C141.617 23.9129 138.088 23.6409 134.519 23.6169C134.665 21.1179 134.554 18.6259 134.364 16.1379C134.64 11.7559 134.784 7.38289 134.099 2.93489C134.074 2.77291 133.987 2.62789 133.854 2.50392C135.225 2.00894 135.16 0.822899 133.132 0.667919C132.865 0.647919 132.598 0.641905 132.331 0.622875C132.147 0.578925 131.959 0.543905 131.778 0.527905C126.764 0.0589045 121.8 0.240903 116.78 0.192883C116.367 0.184883 115.954 0.17989 115.542 0.17091C114.161 -0.21611 111.918 0.0569086 111.996 0.963879C112.339 4.85994 112.241 8.7209 111.951 12.6059C106.934 12.3319 102.126 12.5279 97.0538 13.1519C96.8698 13.1589 96.6888 13.1569 96.5068 13.1649C94.5058 13.2609 94.6038 14.6739 96.4648 14.9049C100.533 15.4089 104.422 15.2739 108.367 14.9719C110.229 15.0389 112.094 15.1139 113.967 15.1749C114.658 15.1979 115.849 15.0219 116.094 14.4479C116.542 14.2969 116.867 14.0639 116.899 13.7329C117.226 10.4219 116.885 7.15591 116.697 3.86592C116.694 3.69094 116.682 3.51492 116.677 3.33992C116.952 2.99692 117.312 2.78493 117.804 2.78993C121.527 2.82791 125.066 3.0749 128.674 2.9889C129.514 10.6369 127.731 18.2749 128.792 25.9349C128.9 26.7139 130.307 27.0139 131.202 26.9899C131.252 26.9889 131.303 26.9869 131.354 26.9849C131.942 26.9689 133.004 26.8829 133.514 26.4989C137.026 26.6439 140.473 26.5809 143.918 26.3469C145.729 26.3429 147.541 26.3289 149.353 26.3569C150.931 26.3799 151.698 25.8279 151.669 25.2799C151.865 25.1429 152.021 24.9829 152.038 24.7609C152.311 21.2509 152.022 17.8979 151.269 14.4639C155.886 14.6609 160.483 14.5999 165.132 14.3949C165.16 14.3959 165.187 14.3969 165.215 14.3969C165.215 14.3949 165.214 14.3939 165.214 14.3919C165.456 14.3809 165.696 14.3769 165.938 14.3659C169.053 14.2169 167.824 12.1159 165.269 12.1139Z"
        fill="#262324" />
    <path
        d="M169.105 7.53896C169.218 7.82899 169.288 8.12898 169.388 8.42299C168.033 11.4509 168.19 15.379 170.352 17.869C171.098 18.729 174.733 19.074 174.852 17.672C175.159 14.073 175.057 10.566 173.888 7.04695C173.464 5.76997 168.497 5.97798 169.105 7.53896Z"
        fill="#262324" />
    <path
        d="M177.147 6.74091C177.249 7.0019 177.314 7.2699 177.391 7.53492C176.294 11.0929 175.651 14.3029 177.145 17.9739C177.589 19.0649 181.241 18.9319 181.48 17.7829C182.27 13.9789 183.122 10.0509 181.71 6.27192C181.255 5.0539 176.572 5.2569 177.147 6.74091Z"
        fill="#262324" />
</svg>