<svg width="184" height="5" viewBox="0 0 184 5" fill="none" xmlns="http://www.w3.org/2000/svg">
    <path d="M128.981 1.89191L129.355 1.44495L128.685 1.69391L128.981 1.89191Z" fill="#F9F9F9" />
    <path
        d="M155.534 1.24591C151.112 1.83291 146.708 2.04695 142.246 2.12695C140.797 2.15295 140.009 3.48298 141.801 3.79895C146.616 4.64995 151.952 4.71894 156.767 3.80994C159.938 3.21094 157.912 0.929909 155.534 1.24591Z"
        fill="#262324" />
    <path
        d="M181.304 0.930944C176.529 0.969944 171.858 1.23191 167.106 1.49991C165.711 1.57791 165.656 2.69592 167.083 2.77592C171.826 3.04289 176.495 3.30688 181.26 3.34488C183.929 3.36688 183.983 0.908944 181.304 0.930944Z"
        fill="#262324" />
    <path
        d="M15.5587 1.24591C11.1363 1.83291 6.73245 2.04695 2.27055 2.12695C0.821353 2.15295 0.034252 3.48298 1.82525 3.79895C6.64065 4.64995 11.9767 4.71894 16.7916 3.80994C19.963 3.21094 17.9366 0.929909 15.5587 1.24591Z"
        fill="#262324" />
    <path
        d="M41.3281 0.930944C36.5537 0.969944 31.8828 1.23191 27.1309 1.49991C25.7354 1.57791 25.6802 2.69592 27.1074 2.77592C31.8506 3.04289 36.5195 3.30688 41.2842 3.34488C43.9536 3.36688 44.0073 0.908944 41.3281 0.930944Z"
        fill="#262324" />
    <path
        d="M66.604 1.4389C63.5122 0.933943 60.2256 1.12694 57.0996 1.14191C55.6294 1.14794 51.4136 0.639958 50.3164 1.89496C50.1807 2.04996 50.1597 2.19793 50.3081 2.35693C51.4028 3.53193 54.7891 3.09596 56.2368 3.17896C59.4663 3.363 62.7803 3.66595 66.0112 3.66595C67.951 3.66595 68.98 1.82794 66.604 1.4389Z"
        fill="#262324" />
    <path
        d="M82.31 0.746963C80.237 0.613963 78.029 0.490898 75.987 0.922928C73.546 1.43993 74.267 3.49196 76.548 3.38692C78.413 3.30096 80.269 3.04397 82.123 2.83797C83.501 2.68601 85.439 2.74695 86.56 1.83699C86.611 1.79495 86.62 1.71095 86.563 1.66792C85.436 0.821953 83.677 0.833963 82.31 0.746963Z"
        fill="#262324" />
    <path
        d="M104.155 0.95794C100.762 1.00494 97.402 1.1549 94.015 1.3189C92.223 1.4059 92.156 2.86793 93.986 2.95696C97.368 3.12093 100.724 3.27095 104.113 3.31695C104.813 3.32795 106.27 3.09894 106.287 2.17394C106.304 1.26494 104.855 0.94894 104.155 0.95794Z"
        fill="#262324" />
    <path
        d="M131.745 1.27502C127.321 0.763024 122.864 0.361976 118.405 0.625976C117.625 0.672976 116.311 1.175 116.294 2.08997C116.272 3.334 118.182 3.63802 119.104 3.69202C123.293 3.94102 127.56 3.50201 131.714 3.01501C133.172 2.84401 133.254 1.45002 131.745 1.27502Z"
        fill="#262324" />
</svg>